PathFileType	4	(X/Y/Z)	/tmp/tmpfbxcaoho/Subject7/MarkerData/Take_2_10hz_segment_0.trc
DataRate	CameraRate	NumFrames	NumMarkers	Units	OrigDataRate	OrigDataStartFrame	OrigNumFrames
50.0148	50.0148	7	35	m	50.0148	1250	2000
Frame#	Time	C7			CLAV			LANK			LASI			LBHD			LELB			LFHD			LFIN			LFRM			LHEE			LKNE			LSHO			LTHI			LTIB			LTOE			LUPA			LWRA			LWRB			RASI			RBAK			RBHD			RELB			RFHD			RFIN			RFRM			RHEE			RKNE			RSHO			RTHI			RTOE			RUPA			RWRA			RWRB			STRN			T10		
		X1	Y1	Z1	X2	Y2	Z2	X3	Y3	Z3	X4	Y4	Z4	X5	Y5	Z5	X6	Y6	Z6	X7	Y7	Z7	X8	Y8	Z8	X9	Y9	Z9	X10	Y10	Z10	X11	Y11	Z11	X12	Y12	Z12	X13	Y13	Z13	X14	Y14	Z14	X15	Y15	Z15	X16	Y16	Z16	X17	Y17	Z17	X18	Y18	Z18	X19	Y19	Z19	X20	Y20	Z20	X21	Y21	Z21	X22	Y22	Z22	X23	Y23	Z23	X24	Y24	Z24	X25	Y25	Z25	X26	Y26	Z26	X27	Y27	Z27	X28	Y28	Z28	X29	Y29	Z29	X30	Y30	Z30	X31	Y31	Z31	X32	Y32	Z32	X33	Y33	Z33	X34	Y34	Z34	X35	Y35	Z35

1251	25.0126	0.795994	1.2626	0.0332912	0.707489	1.17336	0.120795	0.654086	0.0803836	0.335756	0.781221	0.74682	0.181013	0.849223	1.41276	0.0694444	0.724579	1.16064	0.404761	0.715087	1.44248	0.19629	0.380002	1.23103	0.548246	0.600934	1.18229	0.50077	0.671691	0.0293714	0.233682	0.685302	0.468655	0.375666	0.853344	1.22794	0.198677	0.759584	0.612382	0.310684	0.688937	0.270876	0.370645	0.490036	0.0317849	0.433892	0.819063	1.16603	0.316843	0.43009	1.19212	0.478519	0.468338	1.22618	0.551573	0.658442	0.766265	-0.0560969	0.775754	1.13884	-0.0869305	0.77109	1.41115	0.00133694	0.426693	1.20677	0.132047	0.64923	1.44298	0.117577	0.285138	1.24231	0.465687	0.337197	1.21458	0.256961	1.11901	0.01534	-0.32297	0.765401	0.368731	-0.275269	0.637268	1.24326	-0.0054479	0.689196	0.565678	-0.180736	0.865876	0.0225307	-0.407511	0.501949	1.21104	0.061282	0.350898	1.19691	0.421688	0.272908	1.22471	0.391937	0.674488	1.00703	0.138935	0.87004	0.936176	-0.027736
1252	25.0326	0.819421	1.2659	0.00174958	0.730458	1.17819	0.0890457	0.656733	0.081067	0.334174	0.7967	0.7519	0.153767	0.873607	1.41637	0.0400566	0.757656	1.15737	0.377886	0.738219	1.44587	0.165616	0.414471	1.23754	0.520749	0.634058	1.18417	0.471996	0.672609	0.02892	0.233883	0.703034	0.470972	0.350707	0.878569	1.23098	0.166565	0.775953	0.614925	0.284323	0.700075	0.272093	0.356425	0.491473	0.0350426	0.434449	0.847728	1.16533	0.285861	0.464009	1.20116	0.446714	0.503038	1.23405	0.521001	0.673454	0.770893	-0.0832701	0.798562	1.1412	-0.118748	0.796154	1.41545	-0.0288679	0.447387	1.21167	0.0962038	0.673252	1.44708	0.0863427	0.295983	1.24442	0.426299	0.355078	1.21941	0.218904	1.11883	0.0153059	-0.323158	0.759224	0.363618	-0.29086	0.660855	1.24789	-0.0382569	0.694022	0.566684	-0.202661	0.865754	0.0222054	-0.407579	0.523764	1.21598	0.0272577	0.363908	1.19991	0.38524	0.286917	1.22925	0.351443	0.694019	1.01244	0.107621	0.888934	0.937116	-0.0577279
1253	25.0526	0.843031	1.26914	-0.0325391	0.753073	1.18273	0.0540561	0.660978	0.0823705	0.331735	0.81155	0.756814	0.124174	0.897533	1.42021	0.00780873	0.791766	1.152	0.349254	0.760288	1.44936	0.131442	0.450654	1.24314	0.487299	0.668741	1.18471	0.440131	0.673434	0.028129	0.23371	0.721108	0.472302	0.323489	0.903316	1.23429	0.132441	0.792056	0.616886	0.255814	0.711739	0.273128	0.340548	0.496286	0.0456311	0.435819	0.876462	1.16387	0.252715	0.500534	1.2081	0.410647	0.539491	1.2407	0.485664	0.689222	0.7759	-0.113315	0.823528	1.14294	-0.15322	0.82109	1.41972	-0.062259	0.467508	1.21387	0.0529477	0.696579	1.45111	0.0512262	0.310076	1.24694	0.380122	0.372945	1.22201	0.173896	1.11883	0.0152998	-0.323177	0.754505	0.358586	-0.304542	0.685468	1.25191	-0.0756361	0.699665	0.567632	-0.225262	0.865445	0.0219103	-0.407451	0.545843	1.21904	-0.0132593	0.378982	1.20189	0.340797	0.303155	1.23291	0.304964	0.713052	1.01761	0.0726241	0.908839	0.937692	-0.0891363
1254	25.0726	0.865726	1.27222	-0.0683392	0.774012	1.18663	0.017226	0.666498	0.0845657	0.327208	0.826106	0.762193	0.0939009	0.920067	1.42397	-0.0264316	0.82496	1.14466	0.319566	0.780982	1.45272	0.0952684	0.487392	1.24779	0.448581	0.703372	1.18329	0.405882	0.674392	0.0265343	0.232832	0.739299	0.472932	0.294956	0.926194	1.23756	0.097705	0.807647	0.618178	0.226101	0.724302	0.274019	0.322981	0.504168	0.0634031	0.436006	0.903698	1.16158	0.21871	0.538147	1.21244	0.371047	0.576418	1.24515	0.446472	0.705341	0.780885	-0.144976	0.849527	1.14402	-0.188982	0.844634	1.42385	-0.0976331	0.48632	1.21277	0.00331032	0.718488	1.45493	0.0140287	0.32687	1.24933	0.328418	0.390289	1.22183	0.122875	1.119	0.0153202	-0.323137	0.75125	0.354318	-0.316306	0.710038	1.2552	-0.116207	0.705971	0.568723	-0.247742	0.864984	0.0218786	-0.407256	0.567254	1.21978	-0.0594102	0.396315	1.20329	0.290124	0.321091	1.23529	0.253556	0.731117	1.02177	0.0353556	0.928871	0.938003	-0.120923
1255	25.0926	0.886578	1.27514	-0.104294	0.792779	1.18993	-0.0198269	0.67228	0.0876905	0.320233	0.839977	0.767412	0.063603	0.940474	1.42756	-0.0615132	0.856197	1.13576	0.288976	0.799474	1.45605	0.0580509	0.523771	1.25106	0.404996	0.736682	1.17989	0.369226	0.676011	0.0238331	0.23125	0.756347	0.472692	0.265333	0.946619	1.24088	0.0632267	0.822117	0.618771	0.196037	0.736864	0.274777	0.303797	0.512354	0.0853836	0.431703	0.928752	1.1587	0.184709	0.57555	1.21414	0.327478	0.612659	1.24719	0.403309	0.721399	0.785517	-0.176927	0.875007	1.14475	-0.224588	0.866107	1.42746	-0.133893	0.503242	1.20784	-0.0498756	0.738162	1.45834	-0.0242842	0.344876	1.24941	0.273487	0.406504	1.21774	0.0683189	1.11922	0.0153503	-0.323202	0.749747	0.351554	-0.327255	0.733026	1.2577	-0.157686	0.71312	0.570299	-0.269918	0.864645	0.0220338	-0.407226	0.587012	1.21774	-0.10816	0.41503	1.20258	0.236017	0.339563	1.23463	0.199303	0.748447	1.02492	-0.00166883	0.948365	0.938295	-0.152038
1256	25.1126	0.905308	1.27742	-0.138964	0.809205	1.19234	-0.0558526	0.678139	0.0910899	0.311874	0.852612	0.771533	0.0344027	0.958163	1.43062	-0.095538	0.884761	1.12482	0.258378	0.814458	1.45881	0.0208164	0.559025	1.2527	0.35728	0.767658	1.17407	0.3311	0.677845	0.0203442	0.229153	0.772182	0.47108	0.235872	0.964093	1.24378	0.0304754	0.835448	0.618425	0.16681	0.749076	0.274883	0.284174	0.520592	0.10851	0.423129	0.95101	1.1548	0.152105	0.611967	1.21314	0.280641	0.647241	1.24654	0.35719	0.737208	0.788994	-0.208192	0.899266	1.14483	-0.258685	0.885461	1.4301	-0.169633	0.518485	1.19898	-0.104524	0.754899	1.46069	-0.0629767	0.363745	1.24675	0.216649	0.421919	1.20967	0.0118665	1.11923	0.0152991	-0.323621	0.749717	0.349943	-0.33835	0.753741	1.25888	-0.198483	0.721224	0.571955	-0.291947	0.864545	0.0220172	-0.407372	0.605023	1.21269	-0.157404	0.434252	1.19872	0.179783	0.358359	1.23064	0.143401	0.764059	1.02785	-0.0371022	0.966843	0.938191	-0.181249
1257	25.1326	0.922137	1.27846	-0.171137	0.823195	1.19356	-0.0901548	0.684221	0.0939158	0.30341	0.8633	0.774	0.00737099	0.972843	1.43294	-0.126483	0.910438	1.11206	0.229184	0.825046	1.46017	-0.0150505	0.592593	1.25183	0.308104	0.79588	1.1658	0.293474	0.679574	0.0167	0.226917	0.787317	0.467985	0.208705	0.978365	1.24552	0.000721779	0.847854	0.616785	0.139859	0.761021	0.273948	0.265803	0.530138	0.130509	0.412701	0.970299	1.14969	0.12204	0.646799	1.20925	0.233014	0.679732	1.24296	0.310773	0.752255	0.790927	-0.237803	0.922655	1.14374	-0.290063	0.902904	1.43171	-0.20326	0.533061	1.18639	-0.160023	0.768328	1.46137	-0.100751	0.383818	1.24139	0.158094	0.437748	1.19812	-0.0461196	1.11918	0.0151699	-0.324047	0.750517	0.348863	-0.349504	0.772757	1.25829	-0.23786	0.729761	0.573176	-0.313234	0.86446	0.021989	-0.407755	0.622167	1.20459	-0.20663	0.454138	1.19163	0.121566	0.378127	1.22367	0.0859117	0.777344	1.03005	-0.0709096	0.983901	0.937032	-0.207406
